<svg class="angle-right" xmlns="http://www.w3.org/2000/svg" viewBox="0 0 19 56">
<path d="M18.594 30c0 0.25-0.125 0.531-0.312 0.719l-14.563 14.563c-0.188 0.188-0.469 0.312-0.719 0.312s-0.531-0.125-0.719-0.312l-1.562-1.562c-0.188-0.188-0.312-0.438-0.312-0.719 0-0.25 0.125-0.531 0.312-0.719l12.281-12.281-12.281-12.281c-0.188-0.188-0.312-0.469-0.312-0.719s0.125-0.531 0.312-0.719l1.562-1.562c0.188-0.188 0.469-0.312 0.719-0.312s0.531 0.125 0.719 0.312l14.563 14.563c0.188 0.188 0.312 0.469 0.312 0.719z"></path>
</svg>