<!-- Generated by IcoMoon.io -->
<svg version="1.1" xmlns="http://www.w3.org/2000/svg" width="54" height="50" viewBox="0 0 54 50">
<title>group</title>
<path fill="#232527" d="M16.546 25c-2.902 0.084-5.525 1.339-7.394 3.571h-3.739c-2.79 0-5.413-1.339-5.413-4.436 0-2.26-0.084-9.849 3.46-9.849 0.586 0 3.488 2.372 7.254 2.372 1.283 0 2.511-0.223 3.711-0.642-0.084 0.614-0.14 1.228-0.14 1.842 0 2.539 0.809 5.050 2.26 7.143zM46.429 42.773c0 4.52-2.985 7.227-7.45 7.227h-24.386c-4.464 0-7.45-2.706-7.45-7.227 0-6.306 1.479-15.988 9.654-15.988 0.949 0 4.408 3.878 9.989 3.878s9.040-3.878 9.989-3.878c8.175 0 9.654 9.682 9.654 15.988zM17.857 7.143c0 3.934-3.209 7.143-7.143 7.143s-7.143-3.209-7.143-7.143 3.209-7.143 7.143-7.143 7.143 3.209 7.143 7.143zM37.5 17.857c0 5.915-4.799 10.714-10.714 10.714s-10.714-4.799-10.714-10.714 4.799-10.714 10.714-10.714 10.714 4.799 10.714 10.714zM53.571 24.135c0 3.097-2.623 4.436-5.413 4.436h-3.739c-1.869-2.232-4.492-3.488-7.394-3.571 1.451-2.093 2.26-4.604 2.26-7.143 0-0.614-0.056-1.228-0.14-1.842 1.2 0.419 2.427 0.642 3.711 0.642 3.767 0 6.669-2.372 7.254-2.372 3.544 0 3.46 7.589 3.46 9.849zM50 7.143c0 3.934-3.209 7.143-7.143 7.143s-7.143-3.209-7.143-7.143 3.209-7.143 7.143-7.143 7.143 3.209 7.143 7.143z"></path>
</svg>
